<?xml version="1.0" encoding="UTF-8"?>
<svg id="_圖層_1" data-name="圖層 1" xmlns="http://www.w3.org/2000/svg" viewBox="0 0 104.7 124.12">
  <defs>
    
  </defs>
  <path class="cls-3" d="M87.94,60.8v-.24c0-4.69-1.54-9.1-4.24-12.93l4.54-25.78c.81-4.57-2.24-8.92-6.81-9.73-4.57-.81-8.92,2.24-9.73,6.81l-3.09,17.51c-4.42-1.66-9.36-2.59-14.59-2.59s-9.71.85-13.98,2.37l-3.32-18.84c-.81-4.57-5.16-7.62-9.73-6.81s-7.62,5.16-6.81,9.73l4.69,26.6c-3.02,4-4.77,8.66-4.77,13.65,0,.2.01.4.02.6-6.84,6.21-10.98,14.31-10.98,23.17,0,19.58,20.18,35.44,45.08,35.44s45.08-15.87,45.08-35.44c0-9.03-4.3-17.27-11.38-23.53h.02Z"></path>
  <path class="cls-6" d="M82.2,46.96c1.17-1.25,2.04-2.81,2.42-4.59l4.22-19.56c1.03-4.75-1.41-9.72-5.94-11.46-5.72-2.2-10.92,1.3-12.16,7.05l-3.79,17.58c-.83-.33-2.67-.52-3.61-.52h-20.31c-.33,0-2.53.03-2.85.07l-2.34-15.32c-1.15-5.37-5.65-9.77-11.15-9.77h0c-5.5,0-9.05,4.4-7.9,9.77l4.65,21.69c.39,1.84,1.3,3.44,2.52,4.7-4.87,2.82-8.04,10.99-8.04,16.09,0,8.55,8.88,11.82,19.84,11.82,3.98,0,7.68-.92,10.79-2.5,3.28-1.67,7.14-1.66,10.45-.06,3.02,1.45,6.57,2.29,10.37,2.29,10.96,0,19.84-3.27,19.84-11.82,0-4.73-2.73-12.62-7.01-15.46Z"></path>
  <path class="cls-2" d="M87.44,59.8v-.24c0-4.69-1.54-9.1-4.24-12.93l4.54-25.78c.81-4.57-2.24-8.92-6.81-9.73-4.57-.81-8.92,2.24-9.73,6.81l-3.09,17.51c-4.42-1.66-9.36-2.59-14.59-2.59s-9.71.85-13.98,2.37l-3.32-18.84c-.81-4.57-5.16-7.62-9.73-6.81s-7.62,5.16-6.81,9.73l4.69,26.6c-3.02,4-4.77,8.66-4.77,13.65,0,.2.01.4.02.6-6.84,6.21-10.98,14.31-10.98,23.17,0,19.58,20.18,35.44,45.08,35.44s45.08-15.87,45.08-35.44c0-9.03-4.3-17.27-11.38-23.53h.02Z"></path>
  <path class="cls-4" d="M68.99,33.36h-1.43V15.16c0-4.05-3.29-7.34-7.34-7.34h-12.4c-4.05,0-7.34,3.29-7.34,7.34v18.2h-1.22c-2.69,0-4.89,2.2-4.89,4.89v2.41c0,2.69,2.2,4.89,4.89,4.89h29.72c2.69,0,4.89-2.2,4.89-4.89v-2.41c0-2.69-2.2-4.89-4.89-4.89h.01Z"></path>
  <rect class="cls-5" x="41.71" y="26.78" width="24.13" height="7.55"></rect>
  <path class="cls-4" d="M67.06,35.55h-26.57v-9.99h26.57v9.99ZM42.93,33.1h21.69v-5.11h-21.69s0,5.11,0,5.11Z"></path>
  <circle class="cls-4" cx="39.75" cy="60.65" r="3.51"></circle>
  <circle class="cls-4" cx="67.82" cy="60.74" r="3.51"></circle>
  <path class="cls-1" d="M53.71,75.71c0,3.97-3.73,7.18-8.34,7.18"></path>
  <path class="cls-1" d="M53.7,75.68c0,3.97,3.73,7.18,8.34,7.18"></path>
</svg>