<?xml version="1.0" encoding="UTF-8"?>
<svg id="_圖層_1" data-name="圖層 1" xmlns="http://www.w3.org/2000/svg" viewBox="0 0 240 240">
  <defs>
    
  </defs>
  <path class="cls-3" d="M228.31,207.95c3.37-4.14,1.79-10.18-3.46-11.78-.66-.2-1.37-.2-2.07-.23-.04-.16-.09-.32-.14-.48-.43-1.34-1.05-2.96-2.04-4.12-.45-.86-1.04-1.64-1.93-2.34-1.59-1.25-3.98-.67-4.58,1.02-1.53.29-3,1.26-3.77,2.71-.51-3.03-1.46-5.98-2.25-8.22-1.68-4.75-3.96-9.39-6.87-13.56.66-7.58-3.97-14.18-8.85-19.97-.43-.51-.94-.87-1.49-1.11-1.04-2.36-2.22-4.66-3.48-6.84-2.68-4.64-5.6-9.13-8.62-13.56-1.3-1.91-2.66-3.87-4.17-5.7-.68-4.29-1.63-8.52-3.24-12.52-1.42-3.52-3.41-7.01-5.96-9.85-1.57-1.75-3.78-3.92-6.12-5.32-.14-.44-.31-.87-.52-1.3-.93-1.96-2.65-4.19-4.89-4.64-.76-9.88-8.6-20.24-16.58-25.29-2.22-4.25-6.21-7.99-10.79-9.57-1.47-1.41-2.92-2.88-4.07-4.71-2.65-4.2-4.53-8.82-7.3-12.92-.34-3.07-1.02-6.1-2.19-8.96-1.77-4.33-5.07-7.96-6.68-12.29-.57-1.54-1.74-3.25-3.53-3.53-.19-.03-.37-.06-.56-.09,0,.01,0,.02.01.04-1.04-.27-2.19-.17-3.03.36l-.33.2c-1.18.73-2,1.89-2.33,3.18-.47.15-.88.46-1.17.92-2.18,3.43-.31,7.58,1.01,11,1.65,4.28,3.55,8.37,5.69,12.42,2.04,3.85,4.16,7.69,6.52,11.35,1.07,1.66,2.15,3.62,3.48,5.26-8.09-.17-16.11.65-23.46,3.75-.43-.26-.86-.51-1.29-.75.13-1.08-.14-2.27-.98-3.51-8.21-12.02-19.11-21.66-28.8-32.39-3.15-3.48-8.16.27-7.35,4.28.36,1.77,1.05,3.41,1.93,4.96-1.81,3.39,1.73,8.07,4.54,11.12,1.66,5.98,6.92,11.79,11.04,15.4,2.8,2.45,6.4,5.31,10.29,7.55-4.3,3.79-7.8,8.64-8.79,14.38-.61,3.53-.32,7.18-.62,10.74-.19,2.35-.5,4.82-.35,7.22-.89,1.78-2.31,3.35-4.62,4.63-2.61,1.44-3.05,4-2.21,6.15-.25.1-.49.23-.71.38-.68-.09-1.33-.02-2.04.14-.35.15-.71.3-1.06.45-.23.12-.43.28-.62.44,0-1.12-.13-2.26-.23-3.37-.18-2-.44-3.99-.74-5.98-.7-4.66-8.83-3.61-8.29,1.12.2,1.74.35,3.48.43,5.23.08,1.86-.14,3.82.46,5.61,1.07,3.18,4.87,3.82,6.93,1.79.1.43.25.85.46,1.25.48.91,1.65,1.82,2.66,2.05.34.08.67.12.99.15-.45,1.61-.5,3.33,0,4.94,1.08,3.52,4.03,6.75,7.55,8.47-1.6.72-3.18,1.47-4.65,2.41-.08.05-.14.11-.21.17-1.95.27-3.68,1.21-5.56,1.85-2.03.7-4.2,1.4-5.77,2.93-.81.8-.91,2.38,0,3.16.16.14.34.25.51.37-.04,1.43.81,2.88,2.35,3.26.18.05.37.08.56.12.12,1,.54,1.99,1.28,2.6,2.11,1.75,4.71,2.49,7.42,2.82-1.38,1.99-1.85,4.22-1.26,6.76.08.36.2.71.32,1.04-.07.28-.12.57-.17.86-.83,5.71-1.26,11.9-.67,17.63.08.77.28,1.45.56,2.06-.06,1.72-.01,3.5-.04,5.33-.06,3.2-1.4,6.11-1.57,9.32-.14,2.59-.13,4.72-.96,6.95-.55,1.06-1.02,2.12-1.39,3.1-.36.95-.39,1.85-.19,2.67-.73.45-1.47.88-2.23,1.3-1.71.93-2.43,2.4-2.48,3.9-2.3.04-3.65,1.53-4.06,3.28,0,.01-.02.02-.02.03-.07.12-.14.24-.21.37-1.15,2-.68,5.47,1.7,6.47,5.34,2.25,12.54.81,18.24.67,7.2-.18,14.4-.31,21.6-.57,6.93-.25,13.87-.5,20.8-.75,6.69-.24,14.54.56,21.03-1.2.65.56,1.4.97,2.21,1.1,3.66.6,7.75.77,11.31,1.8,2.79.81,4.87,3.23,7.94,3.99,6.58,1.63,14.18.56,20.86.04,6.78-.52,13.85-.82,20.52-2.24,5-1.06,10.32-4.03,11.08-9.28.78,2.04,2.61,3.75,5.22,3.93,3.11.21,6.11-.32,8.85-1.49.75-.18,1.47-.4,2.15-.67,5.04-.85,8.68-6.34,5.17-10.73.38-.38.72-.77.97-1.09Z"></path>
  <path class="cls-5" d="M65.85,143.53c-.1-.39-.27-.75-.47-1.09-.01-.4-.05-.8-.12-1.19-.16-.92-.55-1.73-1.09-2.4.29-.95.2-2.01-.31-2.95-.65-1.19-1.53-2.27-2.48-3.23-.87-.88-1.79-1.29-2.65-2.07-.22-.2-.46-.35-.71-.46-.27-1.78-.53-3.49-.63-5.33-.1-1.86-.61-4.69-1.88-6.42.16-.11.33-.21.49-.32.8-.55,1.35-1.55,1.03-2.54-.29-.9-1.16-1.71-2.17-1.65-.76.05-1.6.03-2.33.24-.73.21-1.57.52-2.22.9-1.24.72-1.55,2.26-.95,3.42-2.57,2.49-1.52,6.71-.06,10.08-.18.11-.35.23-.51.37-1.61,1.4-1.35,3.95-1.03,5.86.15.91.47,1.72.92,2.45-.48,1.11-.29,2.27-.05,3.51.23,1.14,1.15,2.05,2.25,2.5-.06.42-.07.83-.02,1.22.23,1.72,1.54,3.4,3.25,3.93.36.9,1.02,1.66,1.88,2.3,2.01,1.49,5.01,1.4,7.07.11,2.44-1.53,3.51-4.49,2.8-7.24Z"></path>
  <path class="cls-5" d="M166.52,133.24c-7.41-2.44-18.25-3.52-25.32.5-3.4,1.94-6.04,4.91-9.51,6.78-4.08,2.2-8.39,3.28-13.01,3.61-6.11.43-5.92,8.69,0,9.37,1.4.16,2.79.21,4.19.17.92.87,2.19,1.44,3.81,1.45,2.5.02,4.99-.04,7.48-.17.2.03.4.08.61.1,9.05.86,17.78-1.74,26.29-4.53,1.22-.4,2.14-1.07,2.79-1.88,3.48-1.18,7.4-2.63,8.61-6.34,1.49-4.58-2.01-7.77-5.94-9.06Z"></path>
  <path class="cls-5" d="M158.95,90.95c-.95-.88-2.09-1.41-3.26-1.59-.54-1.39-1.91-2.59-3.42-2.74-.06-.04-.11-.08-.17-.12-.31-.21-.63-.37-.96-.52-1.54-4.71-4.63-9.28-7.04-13.04-2.36-3.69-5.02-7.15-7.75-10.57-1.61-2.02-3.22-3.48-5.09-4.33-1.31-2.8-3.97-5.16-6.04-7.38-1.44-1.55-3-3.34-4.73-4.87.14-.61.17-1.29.02-2.04-.99-5.16-3.92-9.39-6.69-13.77-2.77-4.38-4.7-8.93-7.01-13.54-.4-.79-.99-1.35-1.67-1.71-.14-.7-.57-1.19-1.13-1.49-1.48-2.97-6.44-3.58-8.26-.29-2.05,3.69-2.78,8.17-.33,11.3.33,2.38,1.04,4.7,2.59,7.11.33.52.68,1.04,1.02,1.55,1.57,3.66,4.07,7.15,5.92,10.2.39.64.79,1.27,1.19,1.9,1.51,3.7,3.08,7.35,5.42,10.73.12.18.25.36.38.55-.63.64-1.11,1.44-1.48,2.3-2.2-1.11-4.88-1.53-7.68-1.55-.84-.36-1.86-.51-3.05-.33-2.8.41-5.58,1.03-8.32,1.76-2.9-1.05-5.71-2.2-8.64-3.1-.1-.29-.26-.57-.47-.85-4.86-6.32-11.19-11.25-15.65-17.91-3.01-4.49-7.68-16.14-14.9-10.72-1.72,1.29-1.97,4.65.67,5.15.03,0,.06.03.09.04-1.2.11-2.24,1.63-1.48,2.78,2.62,3.96,4.52,8.47,7.12,12.49,2.55,3.93,5.33,7.73,8.32,11.34,3.07,3.69,6.68,7.33,10.83,9.89-.23.68-.42,1.37-.56,2.06-2.57,2.03-5.35,3.58-6.85,7-1.19,2.7-1.18,6.06-.14,8.97-.64,2.26-.72,4.75-.36,7.09-.34.98-.58,1.99-.6,3-.66-.11-1.36.06-1.9.6-5.89,5.96,3.02,12.84,9.09,12.05,4-.52,7.17-2.99,10.23-5.44,1.59-1.27,3.33-2.94,5.38-3.37,2.42-.51,5.19.68,7.46,1.38,9.53,2.9,18.54,7.12,28.51,8.39,9.2,1.17,17.58-.5,25.58-5.15.91-.53,1.55-1.17,1.98-1.88.41-.2.87-.69,1.2-.95.87-.67,1.73-1.35,2.6-2.02,1.11-.86,1.73-2.85,1.73-4.17,0-1.45-.64-3.17-1.73-4.17Z"></path>
  <path class="cls-6" d="M54.58,104.33c-.1-.69-.41-1.18-.83-1.6-.19-1.38-1.15-2.67-2.55-2.99-1.76-.4-3.96.53-4.36,2.47-.26,1.31-.18,2.66.51,3.83.63,1.06,1.72,2.03,2.96,2.29,1.76.37,3.81-.5,4.24-2.41.13-.57.12-1.01.03-1.6Z"></path>
  <path class="cls-6" d="M104.74,145.11c-1.03-.42-2.29-.51-3.38-.72-1.81-.36-3.91.51-4.36,2.47-.43,1.87.56,3.84,2.47,4.36,1.41.38,2.84.88,4.31.98,1.79.13,3.32-1.47,3.54-3.13.26-1.91-.89-3.27-2.58-3.96Z"></path>
  <path class="cls-1" d="M109.63,56.87c-.83.07-1.7.12-2.55.22.76.64,1.03,1.79.76,2.74,1.27.26,2.54.63,3.79,1.14.47.19.85.5,1.12.86.23-.47.36-.98.34-1.49-.08-1.74-1.53-3.63-3.46-3.46Z"></path>
  <path class="cls-1" d="M51.31,33.43c.08,1.9.35,4.46,1.66,5.87.26.28.61.47.98.58.03-2.46-.43-5.09-2.64-6.44Z"></path>
  <path class="cls-1" d="M87.14,57.08c-.21-.22-.46-.42-.79-.59-6.6-3.29-10.49-11.14-15.01-16.73-4.99-6.17-10.32-11.34-17.04-15.6-2.75-1.75-5.18,1.23-4.46,3.7,1.34.19,2.66.61,3.9,1.34,2.21,1.3,3.56,3.29,4.31,5.54,4.23,3.32,8.28,6.98,11.47,11.13,3.94,5.12,6.98,11.1,12.36,14.8,3.07-2.1,6.94-3.34,10.44-4.17-1.74.13-3.47.26-5.18.58Z"></path>
  <path class="cls-1" d="M94.9,21.48c-.31,1.74-.41,3.5-.17,4.86.49.88,1.11,1.71,1.64,2.52.14.21.34.33.56.38-1.29-2.44-1.61-5.08-2.04-7.76Z"></path>
  <path class="cls-1" d="M209.9,206.27c-.25-5.28-.7-10.55-1.51-15.78-1.58-10.16-5.39-19.29-12.46-26.85-2.44-6.83-5.04-13.63-7.7-20.37-2.9-7.36-7.16-13.02-11.58-19.48-.15-.21-.29-.43-.43-.65-.69-6.13-3.77-12.24-7.71-16.93-4.08-4.86-10.22-8.52-12.22-14.84-.66-2.1-3.87-2.19-4.58-.39-.18-.32-.37-.63-.53-.96-3.89-7.86-3.71-16.6-10.86-22.78-3.08-2.66-6.71-4.41-10.01-6.74-1.16-.82-2.13-1.78-3.03-2.82.54-1.21.43-2.67-.85-3.86-5.66-5.31-7.24-14.13-10.37-21.01-3.33-7.32-7.33-15.56-12.87-21.48-.75-.8-1.62-.94-2.38-.69.13,1.53.52,3.06.89,4.53,1.35,5.23,3.33,10.31,5.4,15.3,2.01,4.85,4.19,9.63,6.48,14.35,1,2.06,1.88,4.61,3.28,6.44.68.89.57,1.77.07,2.43,1.14,1.95,2.5,3.79,4.22,5.42.3.29.62.51.95.67.62.93,1.26,1.85,1.91,2.77,2.4,3.34,5.83,5.53,9.16,7.85,7.35,5.1,9.32,14.08,13.29,21.65,4.12,7.85,10.41,14.4,14.29,22.35.52,1.07,1.31,1.63,2.17,1.81,1.75,4.39,4.26,8.52,6.75,12.53,1.99,3.21,4.54,5.99,6.61,9.14,2.41,3.66,3.94,7.81,5.55,11.86.75,1.88,1.46,3.77,2.15,5.67,7.4,6.41,9.94,18.11,12.1,27.07,1.43,5.95,3.23,12.27,2.29,18.44-.29,1.91-.87,3.68-1.65,5.34,0,.02-.02.05-.02.08-1.11,3-2.68,5.85-4.16,8.69-1.35,2.59-3.23,6.23-6.55,6.46-2.01.14-3.36,1.21-4.02,2.59-1.34.41-2.7.79-4.08,1.08-4.85,1.01-9.95,1.15-14.89,1.2-1.88.02-2.28,2.77-.45,3.29,6.35,1.79,14.01,2.06,20.96.47.67.42,1.49.7,2.49.74,4.81.21,8.5-1.84,11.38-4.96.49.23,1.02.39,1.59.43,3.9.29,6.33-1.62,7.83-4.4.01-.02.03-.04.05-.06,3.08-4.51,3.33-10.29,3.08-15.58Z"></path>
  <path class="cls-1" d="M226.86,210.64c-.57-1.32-.52-.79.17-2.05,1.35-2.46,3.55-4.24,2.9-7.32-.61-2.91-3.04-4.03-5.59-5-2.4-.91-1.81-1.4-2.1-3.79-.19-1.54-.61-2.77-1.79-3.81-1.31-1.15-2.98-1.12-4.3,0-1.37,1.16-2.26,2.53-3.24,4.01-.37.56.12,1.33.76,1.32.6,0,1.47-.17,2.28-.26.02.99-.1,2.16.1,2.88.32,1.18,1,2.33,1.91,3.14,1.32,1.17,6.71,1.82,7.04,3.05.2.75-2.86,2.73-3.36,3.25-.77.82-1.45,1.87-1.64,3-.21,1.18.02,2.42.55,3.5.31.63.96,1.21,1.48,1.81-.73-.05-1.5.12-2.17.43-2.26,1.05-4.88,1.45-7.35,1.49-3.46.05-4.53,5.68-.85,6.28,4.21.69,7.9.08,11.78-1.66.92-.41,1.41-1.27,1.6-2.21,1.47.36,3.16-.21,3.47-1.99.27-1.52.35-2.69-.31-4.12-.33-.72-1.02-1.26-1.32-1.97Z"></path>
  <path class="cls-1" d="M165.98,144.47c-3.33-.72-5.22.82-7.59,2.38-.36-.17-.75-.28-1.15-.31-2.98-.24-5.75,1.08-8.6,1.81-3.17.81-6.28,1.2-9.54,1.16-5.92-.07-12.9-1.81-18.61-.04-2.28.71-3.25,4.42-.73,5.57,3.41,1.55,6.93,1.56,10.63,1.85,3.37.26,6.75.6,10.14.52,2.73-.06,5.92-.31,9.03-.94,3.55.58,7,1.5,10.67.45,4.35-1.25,8.39-3.61,8.89-8.34.18-1.75-1.45-3.75-3.13-4.11Z"></path>
  <path class="cls-1" d="M153.2,193.46c-2.1,1.37-3.68,3.04-5.18,5.05-.95,1.27-1.74,2.87-1.67,4.46-1.13,1.55-1.92,3.32-2.85,5.27-.65,1.36-1.22,3.06-2.33,4.11-1.43,1.37-3.97,1.26-5.84,1.51-2.18.28-4,1.62-4.16,3.92-6.32,2.05-12.43,2.33-19.13,1.45-6.42-.85-12.89-.77-19.37-.74-.16.06-.34.11-.54.13-2.15.29-4.12.21-6.1-.19-2.43-.07-4.85-.19-7.27-.31.31-.69.29-1.47.03-2.2-2.07-.76-4.19-1.32-6.43-1.01-7.06.97-12.16,6.76-19.7,5.6-1.76-.27-2.06-2.03-1.44-3.34-.13-.12-.28-.24-.52-.39-.05-.03-.1-.06-.15-.09-.57-.35-1.23-.5-1.88-.49.03.16.04.33.03.49,1.03.79,1.39,2.04.76,3.24-.58,1.1-2.28,1.6-3.33.87-.52-.36-.98-.8-1.37-1.28-1.99,6.45,9.26,8.33,13.83,7.46,4.42-.84,8.47-3.27,13.01-3.46,4.64-.2,9.37.75,14.02.92,4.38.16,8.76,0,13.13.18,4.37.18,8.72.99,13.07,1.35,7.64.64,16.6,1.82,23.15-3.2.21-.16.38-.35.54-.55,5.4-.57,9.68-.99,12.83-5.54.3,0,.59-.03.88-.1.54-.13,1.21-.5,1.58-.9.13-.14.25-.3.36-.45.05-.05.09-.11.14-.15-.02.02-.05.04-.07.06.02-.03.04-.05.05-.08.47-.43.83-.92,1.02-1.61.23-.85.13-1.98-.36-2.73-.13-.21-.29-.41-.46-.59.97-3.02,1.33-6.23.46-9.14,0-.02-.02-.03-.02-.05.26-.29.53-.59.79-.9,1.18-1.37,2.05-2.63,2.78-4.28.61-1.39-.74-3.3-2.29-2.29Z"></path>
  <path class="cls-1" d="M59.18,143.56c-1.36-1.53-2.9-2.82-4.07-4.98-.9-1.67-2.04-4.81-3.37-5.14-.02-.03-.04-.05-.06-.08-.31-.43-.79-.54-.98.1-.06.18-.1.37-.16.56-.41.65-.61,1.71-.66,2.84-.1.56-.19,1.13-.18,1.82.01,1.8.4,3.73.95,5.32,1.11,3.16,2.83,5.41,4.66,6.16.05.02.09.02.13.03,1.28,1,2.63,1.29,3.96.51,1.67-.97,1.24-5.5-.23-7.15Z"></path>
  <path class="cls-1" d="M82.32,141.14c-2.16-1.72-4.8-1.34-7.42-1.65-3.05-.37-5.98-1.24-9.02-1.7-1.01-.16-2.25.9-1.5,1.96,2.08,2.96,4.78,4.46,8.24,5.39,2.93.78,7.56,1.46,9.7-1.19.61-.76.91-2.08,0-2.8Z"></path>
  <path class="cls-2" d="M139.92,224.35c-3.84.54-7.68,1.14-11.53,1.7.15-.12.3-.25.43-.4.96-1.08,1.83-2.27,2.6-3.49.65-1.02.43-2.47-.37-3.36.13-.11.26-.2.39-.31,2.2-1.84.2-4.68-2.12-4.71.25-1.1-.15-2.28-.88-3.02.19-.17.38-.33.57-.51,1.5-1.38.92-3.24-.36-4.18.79-2.06-1.03-4.7-3.2-3.94.39-.71.46-1.52.27-2.26,1.18-3.68.01-8.85-.42-12.12-.87-6.52-2.4-12.93-3.22-19.46-.48-3.8-.44-10.24-4.59-12.03-2.43-1.04-5.71-.85-8.32-1.03-2.09-.15-4.18-.23-6.27-.27-9.38-1.38-19.04-3.28-28.32-1.6-1.03.19-1.87.49-2.58.89-1.82-.01-3.63.08-5.44.36-4.26.1-8.52.19-12.78.29-.05,0-.1-.02-.15-.02l-19.97-.18c-1.14-.01-1.92.52-2.35,1.27-1.23-.12-2.54.45-3.04,1.94-.65,1.94-.82,4-.79,6.09-.79.42-1.4,1.22-1.49,2.38-.54,6.65-.75,13.3.5,19.81-.59.76-1.05,1.64-1.22,2.59-.13.77-.12,1.49.29,2.19.35.59,1.02,1.15,1.7,1.31.02,0,.04,0,.06,0-.06,2.33-.12,4.68-.1,7.01-.35.45-.59.97-.66,1.55-.5,4.37-1.01,8.74-1.51,13.11-.19,1.62,1.02,2.56,2.36,2.73.13,1.07.27,2.14.43,3.21-1.11,1.08-1.01,3.28.32,4.41-1.83-.42-3.65-.88-5.47-1.43-3.51-1.05-5.01,4.44-1.51,5.48,19.36,5.77,39.58,4.66,59.54,5,9.99.17,19.99,1.02,29.98.4,10.3-.64,20.54-2.45,30.75-3.9,3.61-.51,2.07-5.99-1.51-5.48ZM40.77,221.64s.03-.04.05-.06c.69.09,1.39.18,2.09.26.04.14.09.27.15.4-.76-.2-1.53-.4-2.29-.6ZM57.93,161.47c-.1-.34-.21-.67-.34-.99.84-.02,1.67-.04,2.51-.06.02.07.04.14.05.22-.01.04-.04.09-.05.13-.3.24-.55.55-.74.9-.46-.19-.95-.26-1.43-.2ZM61.11,190.28c-.56,1.99-1.05,3.99-1.51,5.99-.14.1-.29.21-.43.32-.01-3.15-.08-6.3-.23-9.46.36-.26.64-.63.8-1.09.65.53,1.56.8,2.35.7-.35,1.17-.65,2.37-.98,3.53ZM100,225.28c.03-.25.01-.5-.02-.75.12.09.26.16.4.23.06.18.13.36.22.53-.2,0-.4,0-.6,0ZM114.73,224.87c.81-.52,1.6-1.05,2.4-1.58-.2,1.74,1.3,3.52,3.52,3.12l.53-.1c.96-.18,1.55-.71,1.84-1.37.14-.1.27-.2.41-.3.06.2.13.4.24.6.32.57.84,1,1.43,1.27-3.15.43-6.3.83-9.46,1.13.17-.99-.18-2.08-.9-2.78Z"></path>
  <path class="cls-4" d="M77.01,63.86c-7.39-4.62-13.63-10.76-18.2-18.21-2.26-3.69-4.11-7.63-5.44-11.75-.49-1.51-2.12-5.35-1.6-6.84,1.45-4.1,5.43-.25,6.71.83,11.04,9.25,15.7,23.88,27.84,32.17,2.83,1.93,5.49-2.67,2.68-4.58-8.63-5.89-13.39-15.46-19.61-23.55-3.6-4.68-13.25-16.76-20.15-11.28s.26,19.19,3.46,25.06c5.1,9.36,12.61,17.11,21.62,22.75,2.91,1.82,5.57-2.78,2.68-4.58h0Z"></path>
  <path class="cls-4" d="M88.78,60.41c6.7-2.25,13.43-2.57,20.29-.84,3.31.84,4.73-4.28,1.41-5.12-7.74-1.95-15.54-1.71-23.12.84-3.22,1.08-1.84,6.21,1.41,5.12h0Z"></path>
  <path class="cls-4" d="M112.6,55.61c-2.41-3.7-4.15-7.77-6.59-11.45-2.16-3.26-4.45-6.42-6.34-9.86-2.12-3.88-3.92-8.17-4.24-12.63-.39-5.45,3.96-13.35,9.34-6.81,2.68,3.26,3.01,8.21,4.1,12.16.92,3.33,2.03,6.59,3.36,9.77,2.98,7.14,7.04,13.63,12.68,18.97,2.48,2.35,6.24-1.4,3.75-3.75-8.34-7.89-12.77-18.49-15.46-29.47-1.75-7.17-6.01-18.42-15.74-14.93-8.85,3.18-8.2,14.74-5.72,21.97,1.7,4.96,4.4,9.48,7.3,13.82,3.24,4.84,5.78,10.03,8.95,14.9,1.86,2.85,6.46.19,4.58-2.68h0Z"></path>
  <path class="cls-4" d="M73.72,66.09c-3.25,3.09-5.8,6.65-7.41,10.84-1.94,5.05-1.47,10.1-1.66,15.39-.36,9.94-8.55,16.23-10.36,25.72-.64,3.34,4.48,4.77,5.12,1.41,1.52-7.96,8.21-13.53,9.97-21.42.94-4.23.38-8.57.62-12.85.34-6.1,3.11-11.19,7.48-15.34,2.48-2.36-1.28-6.11-3.75-3.75h0Z"></path>
  <path class="cls-4" d="M24.09,221.79c-3.93-.38-9.8,1.23-8.58,6.48,1.32,5.7,9.66,5.59,14.06,6.05,18.34,1.91,36.8,2.27,55.23,1.86,18.4-.41,36.99-1.09,55.31-2.79,4.4-.41,9.01-3.21,6.63-8.27-3.15-6.7-10.24-3.34-15.69-4.83-3.3-.9-4.71,4.22-1.41,5.12,2.06.56,3.98.63,6.12.49,1.18-.07,2.51-.38,3.66.06,3,1.14.23,1.82-1.29,2.25-2.36.66-5.46.35-7.91.51-2.97.19-5.93.37-8.9.55-11.84.71-23.68,1.31-35.54,1.59-11.5.28-23.02.26-34.52-.25-5.6-.25-11.19-.61-16.76-1.11-2.96-.26-5.93-.53-8.88-.91s-6.66-1.97-1.54-1.47c3.4.33,3.38-4.98,0-5.31h0Z"></path>
  <path class="cls-4" d="M29,225.28c-1.46-18.13-1.98-36.33-1.45-54.52.15-5.07-1.01-11.86,4.53-14.24,3.85-1.65,8.98-1.32,13.12-1.43,9.3-.23,18.62-.27,27.92-.19s18.62.28,27.92.63c4.28.16,8.89-.13,13.09.72,5.1,1.03,5.28,4.81,6.03,9.33,3,18.21,5.41,36.51,7.28,54.87.34,3.37,5.66,3.4,5.31,0-1.69-16.59-3.8-33.13-6.39-49.6-.86-5.47-.54-13.69-5.35-17.44-4.74-3.7-12.4-2.9-17.97-3.12-17.61-.7-35.23-.9-52.85-.61-7.14.12-15.07-.3-21.8,2.5s-5.8,8.62-6.02,14.68c-.72,19.48-.24,38.98,1.32,58.41.27,3.38,5.58,3.41,5.31,0h0Z"></path>
  <path class="cls-4" d="M45.11,107.31c.78,1.72.81,3.53.66,5.37-.08.97-.29,1.91-.4,2.87-.12,1.1-.04,2.21,0,3.31.11,4.29.26,8.59.62,12.87.34,4.02.69,8.2,1.87,12.08.57,1.88,1.34,3.81,2.65,5.3s3.25,2.52,5.06,3.34c1.14.51,2.49.33,3.17-.83.58-.99.32-2.65-.83-3.17-1.49-.67-3.31-1.44-4.26-2.83s-1.45-3.29-1.82-4.98c-.86-3.88-1.16-7.91-1.42-11.87s-.6-8.23-.46-12.29c.07-1.93.59-3.82.54-5.78s-.53-3.9-1.37-5.74c-.52-1.14-2.17-1.42-3.17-.83-1.17.68-1.35,2.03-.83,3.17h0Z"></path>
  <path class="cls-4" d="M49.33,103.67c-.23-.77.08-1.71,1.03-1.68,1.14.04,2.06,1.77,2.46,2.65,1.18,2.62,1.45,5.43,3.15,7.83,1.96,2.77,6.56.12,4.58-2.68-2.99-4.22-2.43-10.8-8.29-12.76-4.94-1.66-9.54,3.19-8.06,8.05.99,3.26,6.12,1.87,5.12-1.41h0Z"></path>
  <path class="cls-4" d="M100.87,148.08c-2.34-1.01-2.68-1.25-1.04-.71l1.68-.06c1.67.06,3.38-.09,5.05-.15,3.47-.13,6.92-.33,10.36-.84,3.12-.46,6.15-1.17,9.08-2.34,3.44-1.37,6.67-4,10.45-4.14,3.41-.13,3.42-5.44,0-5.31-5.79.22-10.27,4.16-15.75,5.64-6.51,1.76-13.35,1.63-20.03,1.86-3.11.11-7.5.26-7.51,4.4,0,3.89,3.98,7.42,7.71,6.96,3.35-.41,3.39-5.73,0-5.31h0Z"></path>
  <path class="cls-4" d="M118.41,158.05c7.96.8,15.95,1.03,23.94.55,5.55-.34,12.16-.18,16.25-4.53,2.34-2.49-1.41-6.25-3.75-3.75-3.73,3.98-13.17,3.1-18.24,3.21-6.08.12-12.14-.17-18.19-.78-3.4-.34-3.37,4.97,0,5.31h0Z"></path>
  <path class="cls-4" d="M124.91,56.93c6.17,3.87,12.77,7.9,16.94,14.05,3.92,5.77,5.32,12.78,9.52,18.43,3.85,5.19,8.98,9.32,12.65,14.64,4.15,6.03,6.15,13.17,9.17,19.76s7.67,12.58,11.63,18.8c3.92,6.16,7.46,12.56,10.59,19.15,3.41,7.18,6.3,14.6,8.67,22.18,2.62,8.37,4.94,17.01,2.68,25.74-.86,3.31,4.26,4.72,5.12,1.41,3.91-15.13-3.12-31.86-9.01-45.62-3.22-7.52-6.94-14.82-11.15-21.82s-9.57-13.57-13.22-21c-3.45-7.02-5.41-14.78-9.89-21.28-4.1-5.97-10.05-10.45-13.99-16.52s-5.54-13.72-10.47-19.55c-4.55-5.38-10.65-9.23-16.56-12.94-2.9-1.82-5.57,2.77-2.68,4.58h0Z"></path>
  <path class="cls-4" d="M160.79,230.61c1.31,1.7,2.74,2.29,4.85,2.32s4.17.26,6.25.3c4.51.09,9.01-.25,13.48-.9s8.73-1.67,12.94-3.06c3.72-1.23,7.82-2.56,10.72-5.32,1.62-1.54,2.73-3.56,2.83-5.82.05-1.15-.19-2.3-.34-3.44-.09-.67-.27-1.58.02-2.22.55-1.22.35-2.67-.89-3.4-1.06-.62-2.85-.34-3.4.89-.81,1.82-.86,3.54-.59,5.49.18,1.29.53,2.65-.17,3.82-1.54,2.58-5.1,3.67-7.76,4.61-7.37,2.63-15.11,4.12-22.93,4.36-2.22.07-4.44.04-6.66-.08-1-.06-2-.17-3.01-.2-.4,0-.84-.04-1.25-.02.24-.02-.05.04-.01-.02-.19-.07-.17-.04.06.07.21.09.26.13.14.1-.82-1.06-2.14-1.63-3.4-.89-1.04.61-1.71,2.33-.89,3.4h0Z"></path>
  <path class="cls-4" d="M214.98,191.63c2.23-3.82,3.72-4.66,4.47-2.52.42.61.47,1.27.15,2,.05,1.2.03,2.18.22,3.4.14.87,1.04,1.65,1.85,1.85,2.49.61,5.26,1.44,6.75,3.77,2.25,3.54-.39,6.03-3.14,7.87-1.98,1.33-1.53,4.05.63,4.85l.7,3.17c-.64.53-1.34.96-2.09,1.3-1.39.73-2.98,1.25-4.48,1.7-2.37.71-7.19,2.43-9.43.8l1.31,2.29c-.08-.85.07-1.75.05-2.61-.07-3.41-5.38-3.42-5.31,0s.29,5.46,4.37,6.01c4.58.61,9.93-.97,14.1-2.7,3.38-1.4,6.94-3.42,7.45-7.41.48-3.71-2.02-6.47-5.28-7.68l.63,4.85c4.15-2.79,7.72-6.42,6.41-11.87s-6.25-8.23-11.29-9.48l1.85,1.85c-.68-4.25.87-9.55-5.32-9.91-5.27-.31-9.74,3.14-9.96,8.44-.14,3.42,5.17,3.41,5.31,0h0Z"></path>
  <path class="cls-4" d="M167.98,179.01c-6.49,2.73-12.98,6.52-15.71,13.38-2.99,7.5-1.43,17.19-1.04,25.05l3.36-2.56c-5.93-2.2-12.5,2.65-10.82,9.2,1.81,7.06,11.69,9.19,17.82,8.5,3.36-.38,3.4-5.69,0-5.31-2.9.33-5.62.17-8.35-1.02-1.57-.68-2.64-1.15-3.46-2.77-1.25-.92-1.27-1.81-.03-2.66.62-1.57,1.76-1.84,3.43-.83,1.58.59,3.44-.94,3.36-2.56-.31-6.26-.97-12.86-.28-19.11.82-7.42,6.75-11.51,13.14-14.2,3.1-1.31,1.74-6.45-1.41-5.12h0Z"></path>
  <path class="cls-4" d="M56.6,156.09l.95,27.68c.15,4.41.56,8.88.33,13.29-.21,4.14-1.66,7.32-3.04,11.14-.45,1.07-.76,2.18-.93,3.33-.37,1.25.21,1.19,1.74-.18.03-.2-2.72.59-2.5.52-2.75.93-5.48,2.82-7.68,4.69-4.07,3.47-4.41,7.83.32,11.11,5.6,3.88,12.75,2.14,18.93,1.12,4.65-.77,8.92-.24,13.57-.5,4.01-.23,7.77-.59,11.81-.3,17.6,1.24,35.43.49,53.01-.82,3.39-.25,3.41-5.57,0-5.31-15.48,1.16-31.09,1.77-46.61,1.22-3.66-.13-7.3-.61-10.96-.64s-7.19.64-10.83.53c-3.27-.1-6.4-.15-9.64.39-3.79.63-7.63,1.72-11.5,1.4-2.03-.17-6.04-.63-5.46-3.44.26-1.26,3.51-2.74,4.53-3.3,1.58-.86,3.97-.95,5.29-2.14s1.06-3.1,1.48-4.63c.94-3.44,2.79-6.35,3.4-9.93,1.12-6.65.2-13.8-.04-20.51-.28-8.24-.57-16.47-.85-24.71-.12-3.41-5.43-3.42-5.31,0h0Z"></path>
  <path class="cls-4" d="M26.02,172.25c6.49.48,13.01.32,19.48-.47.85-.1,1.59-.66,1.59-1.59,0-.78-.73-1.7-1.59-1.59-6.46.79-12.98.95-19.48.47-2.05-.15-2.04,3.04,0,3.19h0Z"></path>
  <path class="cls-4" d="M25.05,178.34c4.11.2,8.23.39,12.34.59.86.04,1.59-.76,1.59-1.59,0-.9-.73-1.55-1.59-1.59-4.11-.2-8.23-.39-12.34-.59-.86-.04-1.59.76-1.59,1.59,0,.9.73,1.55,1.59,1.59h0Z"></path>
  <path class="cls-4" d="M25.53,184.38c3.74.87,7.55,1.42,11.39,1.67.86.05,1.59-.77,1.59-1.59,0-.91-.73-1.54-1.59-1.59-3.56-.23-7.07-.75-10.54-1.55-.84-.19-1.73.26-1.96,1.11-.22.8.27,1.76,1.11,1.96h0Z"></path>
  <path class="cls-4" d="M25.54,190.86c3.99-.24,7.99.03,11.91.84.84.17,1.72-.25,1.96-1.11.22-.79-.27-1.78-1.11-1.96-4.19-.87-8.48-1.21-12.76-.95-.86.05-1.59.7-1.59,1.59,0,.82.73,1.64,1.59,1.59h0Z"></path>
  <path class="cls-4" d="M26.02,196.94c4.08.53,8.2.7,12.32.53.86-.04,1.59-.71,1.59-1.59,0-.83-.73-1.63-1.59-1.59-4.11.17-8.23,0-12.32-.53-.85-.11-1.59.81-1.59,1.59,0,.95.74,1.48,1.59,1.59h0Z"></path>
  <path class="cls-4" d="M26.48,204.14c8-.52,16,.24,23.75,2.29,1.98.52,2.83-2.55.85-3.07-8.01-2.12-16.33-2.94-24.6-2.4-2.04.13-2.05,3.32,0,3.19h0Z"></path>
  <path class="cls-4" d="M24.41,211.15c4.64.47,9.29.91,13.94,1.2.86.05,1.59-.77,1.59-1.59,0-.91-.73-1.54-1.59-1.59-4.66-.29-9.3-.73-13.94-1.2-.86-.09-1.59.79-1.59,1.59,0,.93.73,1.51,1.59,1.59h0Z"></path>
  <path class="cls-4" d="M26.49,219.34c3.32-.43,6.42-.21,9.56.7.8.23,1.77-.28,1.96-1.11s-.26-1.71-1.11-1.96c-3.37-.98-6.93-1.27-10.41-.82-.82.11-1.63.66-1.59,1.59.03.77.71,1.71,1.59,1.59h0Z"></path>
  <path class="cls-4" d="M54.55,116.95c-3.13,11.76,7.19,22.49,18.04,24.91,3.33.74,4.75-4.37,1.41-5.12-4.4-.98-7.51-2.6-10.47-6.07-3.11-3.64-5.15-7.47-3.86-12.31.88-3.31-4.24-4.72-5.12-1.41h0Z"></path>
  <path class="cls-4" d="M107.35,93.07c-.03,1.33-.03,2.66.01,3.98.04,1.45.07,2.68,1.06,3.84.93,1.09,2.8.96,3.75,0,1.08-1.08.94-2.66,0-3.75l-.15-.17.68,1.17c.19.62-.02-.46-.03-.64-.02-.52-.03-1.03-.04-1.55-.01-.96,0-1.92.01-2.88.07-3.42-5.24-3.42-5.31,0h0Z"></path>
  <path class="cls-4" d="M74.02,94.57c-.04,1.72-.03,3.44.03,5.16.05,1.43,1.19,2.65,2.65,2.65s2.7-1.22,2.65-2.65c-.05-1.72-.06-3.44-.03-5.16.07-3.42-5.24-3.42-5.31,0h0Z"></path>
  <path class="cls-3" d="M78.89,140.56c-.44-.69-1.17-.81-1.77-.6-.05-.08-.11-.16-.17-.23-.44-.44-.88-.89-1.32-1.33-.02-.02-.04-.03-.05-.04-.65-.94-1.47-1.8-1.94-2.25-.88-.84-1.83-1.14-2.78-1.08-.21-.04-.42-.05-.64,0l-2.09.58c-.62.17-.94.59-1.03,1.07-.55.14-1.09.28-1.64.41-.63.16-.96.67-1.04,1.22-.1.01-.2.04-.31.08-.36.14-.71.28-1.07.42-.29-.16-.66-.22-1.11-.09-.49.14-.98.28-1.47.42-.38.11-.64.32-.81.57-.96.44-1.9.9-2.84,1.41-.05.03-.09.07-.14.1-1.31-.16-2.61-.37-3.9-.61-2.27-.97-4.23-2.6-7.01-3.6-1.11-.4-1.83.52-1.82,1.44-1.51-.44-3.02-.89-4.53-1.36-.62-.19-1.16.06-1.5.48-1.77-.37-3.55-.66-5.33-.8-1.92-.15-1.91,2.85,0,3,3.02.24,5.97.84,8.87,1.53,3.85,1.61,7.81,2.65,11.89,3.14-.17.95.58,2.12,1.83,1.84.5-.11,1-.23,1.5-.35.25.35.64.59,1.15.56,1.66-.1,3.19-.33,4.77-.7,1.79.04,3.6-.05,5.45-.25,2.15-.24,13.89-.26,10.85-5Z"></path>
  <path class="cls-4" d="M85.79,143.03c-.6,0-1.22.09-1.84.19,0-.23-.03-.46-.1-.72-1.03-3.42-2.61-6.26-4.9-8.98-.58-.69-1.74-.94-2.58-.68-.44-.23-.89-.46-1.33-.69-.45-1.14-1.29-1.9-2.56-1.95-3.2-.12-7.17,1.99-10.09,3.2-2.99,1.24-5.89,2.65-8.74,4.17-4.06-4.16-8.6-7.64-13.7-10.49-1-.56-2.41-.45-3.22.42-.88.94-1.53,1.94-2.19,2.97-1.29-.2-2.21-.7-3.89.52-2.13,1.55-3.72,4.68-5.2,6.91-.16.01-.32,0-.48.02-.02,0-.03,0-.04,0-.38-.12-.75-.14-1.11-.09-2.47-.88-4.15,4-2.66,5.92,1.75,2.26,7.75,2.7,10.35,3.31,1.89.44,3.8.76,5.72,1.06,4.53,1.64,9.05,3.52,13.68,4.81.08.02.15.02.23.04.12.1.24.19.39.27,4.12,2.06,9.22.91,13.64.22,5.43-.85,11.17-1.47,16.39-3.24,1.57-.23,3.12-.57,4.61-1.14,1.73-.66,1.81-1.78,1.79-3.46-.01-1.42-.54-2.63-2.16-2.6ZM39.31,132.86c4.44,2.73,8.38,6,11.94,9.89.16.17.34.3.53.41-.05.08-.09.17-.12.26l-.48,1.26s-.03-.03-.04-.05c-3.87-3.92-8.12-7.4-12.7-10.43.31-.42.59-.87.88-1.34ZM39.62,140.7c-2.7-.81-5.5-1.75-8.33-2.33.79-1.33,1.66-2.66,2.3-2.91.17-.07.66.05,1.17.17,3.06,1.9,5.97,3.99,8.72,6.28-1.29-.43-2.58-.83-3.86-1.21ZM54.61,143.83c0-.23-.06-.45-.17-.65,0,0,.01,0,.01,0,2.7-1.51,5.43-2.93,8.26-4.18,2.2-.97,5.54-2.85,8.28-3.35.36.52.77.97,1.22,1.36-5.86,2.3-11.73,4.58-17.61,6.84ZM64.62,144.48c-1.71.33-3.58.6-5.43.99,5.72-2.21,11.43-4.43,17.13-6.68.71,1.04,1.29,2.11,1.76,3.27-4.51.48-9.02,1.58-13.46,2.42Z"></path>
</svg>