<?xml version="1.0" encoding="UTF-8"?>
<svg id="_圖層_1" data-name="圖層 1" xmlns="http://www.w3.org/2000/svg" viewBox="0 0 493 107.5">
  <defs>
    
  </defs>
  <circle class="cls-3" cx="317.49" cy="57.95" r="7.93"></circle>
  <g>
    <path class="cls-3" d="M385.8,25.14s16.33-3,24.33,3,11.33-2,11.33-2c0,0,2.33,9.67,1.67,12s1,8-3.67,8-30.67-.67-30.67-.67c0,0-5.67-1.67-4.33-7.33,1.33-5.67,1.33-13,1.33-13h.01Z"></path>
    <path class="cls-3" d="M200.63,63.64s11.33-3,19.33,3,16.33-2,16.33-2c0,0,6.33,9.67,5.67,12s-1,8-5.67,8-37.67-.67-37.67-.67c0,0-5.67-1.67-4.33-7.33,1.33-5.67,6.33-13,6.33-13h0Z"></path>
    <path class="cls-3" d="M91.97,63.96c.15-1.13,1.34-1.8,2.39-1.34,3.72,1.64,11.62,4.58,16.44,2.36,6.5-3,20-6.17,26.17-4,2.9,1.02,3,7,3,7,0,0-1,5-14.33,5s-34,2-34.33-.33c-.22-1.56.3-5.95.67-8.69h0Z"></path>
    <g>
      <path class="cls-2" d="M306.42,58.05c0,6.03,4.9,10.93,10.93,10.93s10.93-4.9,10.93-10.93c0-5.01-3.39-9.23-8-10.52.04-.2.07-.41.07-.63v-8.73c2.8-1.17,4.77-3.94,4.77-7.16,0-4.29-3.48-7.77-7.77-7.77s-7.77,3.48-7.77,7.77c0,3.23,1.97,5.99,4.77,7.16v8.73c0,.22.03.43.07.63-4.61,1.29-8,5.51-8,10.52ZM317.35,53.12c2.72,0,4.93,2.21,4.93,4.93s-2.21,4.93-4.93,4.93-4.93-2.21-4.93-4.93,2.21-4.93,4.93-4.93Z"></path>
      <path class="cls-2" d="M78.74,24.97c0-3.5,3.13-6.35,6.98-6.35h76.95c.27,0,.53-.05.78-.12.33.14.7.23,1.08.24,7.13.17,12.34,5.41,12.24,9.99-.04,1.66,1.27,3.03,2.93,3.07h.07c1.62,0,2.96-1.3,3-2.93.19-8.36-8.26-15.9-18.09-16.13-.29,0-.57.04-.84.11-.36-.15-.75-.23-1.16-.23h-48.8v-7.71c0-1.66-1.34-3-3-3s-3,1.34-3,3v7.71h-22.15c-6.92,0-12.58,5.19-12.94,11.69-.01.12-.04.23-.04.35v39.75c0,10.51-5.3,19.45-11.79,20.32H3c-1.66,0-3,1.34-3,3s1.34,3,3,3h56.23c.22.05.45.09.69.09.5,0,1-.03,1.49-.09h.1c.28,0,.55-.05.81-.13,9.38-1.61,16.42-12.53,16.42-26.19V24.97Z"></path>
      <path class="cls-2" d="M151.29,89.72c-1.66,0-3,1.34-3,3,0,3.73-3.03,6.76-6.76,6.76h-17.17c-3.73,0-6.76-3.03-6.76-6.76v-16.69h8.54l-4.6,12.94c-.03.07-.03.15-.05.22-.03.11-.06.21-.08.32-.02.1-.02.21-.02.31,0,.09-.01.18-.01.27,0,.12.03.24.05.36.01.06,0,.13.02.19,0,.01,0,.02.01.04.02.07.04.14.07.21.03.11.07.22.12.32.03.06.06.12.09.18.05.1.11.2.18.3.04.06.08.11.13.17.07.09.14.17.22.25.05.05.11.1.16.15.09.07.18.14.28.21.06.04.11.08.17.11.15.09.3.16.46.22.01,0,.02.01.04.02h0c.16.06.33.1.49.13.17.03.34.04.51.04.2,0,.4-.03.6-.07h.07l12.13-2.77.87,1.46c.56.94,1.56,1.46,2.57,1.46.53,0,1.06-.14,1.54-.43,1.42-.85,1.88-2.7,1.03-4.12l-4.12-6.86c-.85-1.42-2.7-1.88-4.12-1.03s-1.88,2.69-1.03,4.1l-4.89,1.12,3.49-9.8h.58c5.51,0,9.82-3.49,9.82-7.95,0-.04,0-.08,0-.12v-8.91c0-.23-.03-.44-.08-.65-.57-4.31-4.56-7.67-9.43-7.81.45-.52.73-1.2.73-1.94v-5.96h4.63c1.66,0,3-1.34,3-3s-1.34-3-3-3h-4.63v-4.98h12.86c1.66,0,3-1.34,3-3s-1.34-3-3-3h-12.86v-3.08c0-1.66-1.34-3-3-3s-3,1.34-3,3v3.08h-25.98v-3.08c0-1.66-1.34-3-3-3s-3,1.34-3,3v3.08h-11.51c-1.66,0-3,1.34-3,3s1.34,3,3,3h11.51v4.94h-4.39c-1.66,0-3,1.34-3,3s1.34,3,3,3h4.39v6c0,.75.28,1.42.73,1.95-5.07.21-9.14,3.91-9.35,8.49,0,.07-.02.13-.02.2v9.02c0,.22.03.43.07.64.53,4.03,4.62,7.07,9.76,7.07h4.34v.08c0,6.89-9.34,12.72-20.41,12.72-1.66,0-3,1.34-3,3s1.34,3,3,3c14.81,0,26.41-8.22,26.41-18.72v-.08h3.95v16.69c0,6.63,5.08,12.08,11.54,12.7.2.04.4.06.61.06h18.57c.25,0,.49-.04.73-.1,6.33-.75,11.25-6.14,11.25-12.67,0-1.66-1.34-3-3-3h-.04ZM102.13,48.65v-6h3.08c1.66,0,3-1.34,3-3s-1.34-3-3-3h-3.08v-4.94h25.98v4.98h-2.84c-1.66,0-3,1.34-3,3s1.34,3,3,3h2.84v5.96c0,.74.28,1.4.72,1.92h-14.82l.77-1.56c.73-1.49.11-3.28-1.38-4.01s-3.29-.11-4.01,1.38l-2.06,4.2h-5.91c.44-.52.72-1.19.72-1.92h-.01ZM97.33,70.03c-2.3,0-3.82-1.17-3.82-1.95,0-.04-.01-.08-.01-.12v-8.5c0-1.56,1.75-2.88,3.82-2.88h35.75c2.07,0,3.82,1.32,3.82,2.88v8.66c-.04.78-1.55,1.92-3.82,1.92h-35.75,0Z"></path>
      <path class="cls-2" d="M179.76,41.56h-19.8c-1.66,0-3,1.34-3,3s1.34,3,3,3h16.33c-2.54,7.05-8.65,16.8-19.7,19.94-1.59.45-2.52,2.11-2.07,3.71.38,1.32,1.58,2.18,2.88,2.18.27,0,.55-.04.82-.12,14.52-4.13,22.47-17.41,24.87-27.53.25-1.07-.11-2.13-.84-2.84-.54-.81-1.45-1.34-2.5-1.34h0Z"></path>
      <path class="cls-2" d="M424.55,75.72h-30.48l12.45-5.92h0c.14-.07.29-.15.42-.24.02-.01.03-.03.05-.04.04-.03.08-.07.12-.1,2.21-1.64,3.27-4.39,2.77-7.24-.46-2.61-2.14-4.64-4.4-5.42-.04-.02-.08-.03-.12-.04-.1-.03-.19-.08-.29-.1-.03,0-.05,0-.08,0-.1-.02-.21-.04-.31-.05s-.2-.03-.3-.03h-32.88c-.49,0-.95.13-1.36.34-2.18.82-3.78,2.82-4.23,5.36-.5,2.84.56,5.59,2.76,7.23.04.04.08.07.13.1.02.01.03.03.05.04.14.09.28.17.42.24h0l12.34,5.89h-24.05c-1.66,0-3,1.34-3,3s1.34,3,3,3h31.23c4.4,2.68,6.65,7.81,5.11,12.55-1.82,5.62-8.27,8.58-14.38,6.6-1.57-.51-3.27.35-3.78,1.93s.35,3.27,1.93,3.78c1.9.62,3.82.91,5.7.91,7.29,0,13.97-4.39,16.24-11.36,1.62-5,.62-10.25-2.25-14.4h27.18c1.66,0,3-1.34,3-3s-1.34-3-3-3v-.02ZM387.84,72.04l-15.66-7.47c-.46-.43-.39-1.11-.36-1.32.06-.36.22-.62.35-.74h31.49c.12.13.26.38.32.71.04.21.11.89-.35,1.32l-15.78,7.5h-.01Z"></path>
      <path class="cls-2" d="M490.01,60.06h-55.81v-5.96c0-4.9-4.41-8.88-9.82-8.88-.08,0-.16.02-.24.02-.22-.07-.44-.11-.68-.13l.83-24.14s.02-.1.03-.16c.34-4.88-3.77-9.17-9.18-9.55-.18-.01-.35,0-.53.02-.13-.02-.26-.04-.4-.04h-16.49c-1.66,0-3,1.34-3,3s1.34,3,3,3h16.49c.1,0,.19-.02.29-.03.07.01.14.03.21.04,2.04.14,3.68,1.55,3.61,3.09,0,.07-.02.13-.03.2l-.12,3.58h-9.48c-1.66,0-3,1.34-3,3s1.34,3,3,3h9.27l-.17,4.79h-8.84c-1.66,0-3,1.34-3,3s1.34,3,3,3h8.63l-.14,4.18h-28.07V13.45c0-1.66-1.34-3-3-3s-3,1.34-3,3v31.65h-5.58l-1.05-31.88c-.05-1.66-1.45-2.96-3.1-2.9-1.66.05-2.95,1.44-2.9,3.1l1.04,31.69h-6.71l-1.04-31.49c-.05-1.66-1.46-2.96-3.1-2.9-1.66.05-2.95,1.44-2.9,3.1l1.03,31.3h-1.51c-4.55,0-8.38,2.82-9.49,6.63-.2.41-.33.86-.33,1.34v13.93l-9,2.36v-36.2c0-1.66-1.34-3-3-3s-3,1.34-3,3v37.78l-25.72,6.75c-.08.02-.16.06-.24.09-.23.04-.46.11-.69.21-2.42,1.09-4.19.66-5.57-1.36-.18-.27-.41-.49-.66-.68-4.36-5.4-9.5-7.24-15.67-5.56v-7.07h12.12c1.66,0,3-1.34,3-3s-1.34-3-3-3h-12.12v-13.38c4.72-2.23,11.04-6.04,11.37-6.24,1.42-.86,1.87-2.7,1.02-4.12-.86-1.42-2.7-1.87-4.12-1.02-2.55,1.54-9.86,5.78-13.07,6.91-3.94,1.39-12.19,1.76-15.04,1.78-.34,0-.66.07-.96.18h-44.2v-17.14h16.72c1.66,0,3-1.34,3-3s-1.34-3-3-3h-16.72V3c0-1.66-1.34-3-3-3s-3,1.34-3,3v15.28h-16.72c-1.66,0-3,1.34-3,3s1.34,3,3,3h16.72v17.14h-21.72c-1.66,0-3,1.34-3,3s1.34,3,3,3h15.88l-14.51,22.57h0c-.05.08-.08.17-.12.25-.05.1-.11.19-.15.29h0s0,.03,0,.04c-1.41,3.66-.87,8.14,1.38,11.44,1.8,2.64,4.53,4.26,7.59,4.56.2.04.4.06.62.06h31.31c3.48,0,6.64-1.69,8.65-4.63,2.25-3.3,2.79-7.78,1.38-11.44,0-.01,0-.03,0-.04h0c-.04-.11-.11-.21-.16-.31-.04-.07-.07-.15-.11-.22h0s-14.51-22.58-14.51-22.58h35.58c.37,0,.72-.08,1.04-.2,2.23-.06,8.16-.29,12.9-1.26v11.34h-16.31c-1.66,0-3,1.34-3,3s1.34,3,3,3h15.34c-1.91,7.02-8.09,18.79-20.45,22.3-1.59.45-2.52,2.11-2.07,3.71.38,1.32,1.58,2.18,2.88,2.18.27,0,.55-.04.82-.12,9.08-2.58,15.59-8.74,19.78-15.47v23.74c0,1.66,1.34,3,3,3s3-1.34,3-3v-23.04c.19-.03.39-.07.58-.14,4.56-1.58,7.59-.53,10.82,3.73.16.21.35.39.55.55,2,2.5,4.64,3.81,7.56,3.81,1.52,0,3.11-.36,4.73-1.07.04,0,.08,0,.11-.01l24.2-6.35v24.72c0,1.66,1.34,3,3,3s3-1.34,3-3v-26.29l11.07-2.9c.31-.08.59-.22.85-.39h.08c1.66,0,3-1.34,3-3v-15.32c.02-1.55,1.76-2.86,3.82-2.86h65.67c.08,0,.16-.02.24-.02.28.09.58.15.89.15,2.07,0,3.82,1.32,3.82,2.88v9.02c0,1.66,1.34,3,3,3,.21,0,.41-.02.61-.06h58.2c1.66,0,3-1.34,3-3s-1.34-3-3-3v.02ZM237.93,72.93c.62,1.81.31,4.07-.8,5.7-.63.92-1.78,2.01-3.69,2.01h-30.87c-1.91,0-3.06-1.09-3.69-2.01-1.12-1.63-1.42-3.89-.8-5.7l16.4-25.5h7.06l16.4,25.5h0Z"></path>
    </g>
  </g>
  <g>
    <path class="cls-1" d="M57.31,74.01c-.19-4.98-2.63-9.43-6.43-12.56,0,0-.02-.02-.02-.04v-14.31c0-2.42-1.77-4.61-4.18-4.82-2.72-.24-5.01,1.9-5.01,4.58v10.28s-.03.05-.05.05c-1.28-.24-2.61-.36-3.97-.36s-2.75.13-4.06.38c-.03,0-.05-.02-.05-.05v-10.11c0-2.42-1.77-4.61-4.18-4.82-2.72-.24-5.01,1.9-5.01,4.58v14.68s0,.03-.02.03c-3.89,3.24-6.33,7.87-6.36,13.01-3.79,3.66-6.07,8.38-6.07,13.52h52.06c0-5.4-2.51-10.32-6.64-14.05h0Z"></path>
    <circle class="cls-2" cx="30.56" cy="70.99" r="2.43"></circle>
    <circle class="cls-2" cx="44.87" cy="70.99" r="2.43"></circle>
  </g>
  <path class="cls-2" d="M478.62,50.72h-1.54v-19.64c0-4.37-3.55-7.92-7.92-7.92h-13.38c-4.37,0-7.92,3.55-7.92,7.92v19.64h-1.32c-2.9,0-5.27,2.37-5.27,5.27v2.6c0,2.9,2.37,5.27,5.27,5.27h32.08c2.9,0,5.27-2.37,5.27-5.27v-2.6c0-2.9-2.37-5.27-5.27-5.27h0ZM450.93,50.92v-5.51h23.4v5.51h-23.4Z"></path>
</svg>